<mxfile host="app.diagrams.net" modified="2021-03-13T14:11:03.291Z" agent="5.0 (Macintosh; Intel Mac OS X 10_11_6) AppleWebKit/537.36 (KHTML, like Gecko) Chrome/88.0.4324.192 Safari/537.36" etag="jlCM1yvg5x2P3GKJeDw7" version="14.4.6" type="github">
  <diagram id="eAOixoye2kTpufFEvKg8" name="Page-1">
    <mxGraphModel dx="634" dy="938" grid="1" gridSize="10" guides="1" tooltips="1" connect="1" arrows="1" fold="1" page="1" pageScale="1" pageWidth="827" pageHeight="1169" math="0" shadow="0">
      <root>
        <mxCell id="0" />
        <mxCell id="1" parent="0" />
        <mxCell id="fYtb6iRh1arzeF5KzBjh-1" value="Actor" style="shape=umlActor;verticalLabelPosition=bottom;verticalAlign=top;html=1;" vertex="1" parent="1">
          <mxGeometry x="90" y="580" width="50" height="80" as="geometry" />
        </mxCell>
        <mxCell id="fYtb6iRh1arzeF5KzBjh-2" value="Server" style="ellipse;shape=cloud;whiteSpace=wrap;html=1;" vertex="1" parent="1">
          <mxGeometry x="430" y="450" width="120" height="80" as="geometry" />
        </mxCell>
        <mxCell id="fYtb6iRh1arzeF5KzBjh-3" value="" style="endArrow=classic;html=1;" edge="1" parent="1">
          <mxGeometry width="50" height="50" relative="1" as="geometry">
            <mxPoint x="176" y="625" as="sourcePoint" />
            <mxPoint x="436.32487857070237" y="507.43392580677937" as="targetPoint" />
          </mxGeometry>
        </mxCell>
        <mxCell id="fYtb6iRh1arzeF5KzBjh-4" value="Request" style="edgeLabel;html=1;align=center;verticalAlign=middle;resizable=0;points=[];" vertex="1" connectable="0" parent="fYtb6iRh1arzeF5KzBjh-3">
          <mxGeometry x="0.0824" y="1" relative="1" as="geometry">
            <mxPoint as="offset" />
          </mxGeometry>
        </mxCell>
        <mxCell id="fYtb6iRh1arzeF5KzBjh-5" value="" style="endArrow=classic;html=1;" edge="1" parent="1">
          <mxGeometry width="50" height="50" relative="1" as="geometry">
            <mxPoint x="450" y="530" as="sourcePoint" />
            <mxPoint x="190" y="650" as="targetPoint" />
          </mxGeometry>
        </mxCell>
      </root>
    </mxGraphModel>
  </diagram>
</mxfile>
